<?xml version="1.0" standalone="no"?><!DOCTYPE svg PUBLIC "-//W3C//DTD SVG 1.1//EN" "http://www.w3.org/Graphics/SVG/1.1/DTD/svg11.dtd"><svg t="1712499346294" class="icon" viewBox="0 0 1024 1024" version="1.1" xmlns="http://www.w3.org/2000/svg" p-id="1652" xmlns:xlink="http://www.w3.org/1999/xlink" width="200" height="200"><path d="M393.173333 938.453333s-2.346667-119.68 65.706667-142.506666 161.92 0 161.92 0 39.68 15.786667 42.453333 139.946666l-270.08 2.56z" fill="#514F43" p-id="1653"></path><path d="M393.173333 943.786667c-2.986667 0-5.333333-2.346667-5.546666-5.333334 0-5.12-1.493333-123.946667 69.333333-147.84 68.693333-23.04 161.066667-1.066667 165.12-0.213333 2.56 0.853333 43.946667 18.773333 46.506667 145.066667 0 1.493333-0.426667 2.773333-1.493334 3.84a5.333333 5.333333 0 0 1-3.84 1.706666l-270.08 2.773334z m137.6-152.533334c-23.466667 0-48.426667 2.56-70.4 9.813334-55.253333 18.773333-61.226667 108.8-61.866666 131.84l258.986666-2.56c-3.413333-112.426667-38.613333-129.28-38.826666-129.493334-0.213333 0-41.173333-9.6-87.893334-9.6z" p-id="1654"></path><path d="M262.417114 625.977565a51.626667 24.32 73.038 1 0 46.524085-14.190107 51.626667 24.32 73.038 1 0-46.524085 14.190107Z" fill="#CFA187" p-id="1655"></path><path d="M297.386667 674.133333c-3.413333 0-6.826667-0.853333-10.24-2.773333-11.946667-6.4-23.466667-23.04-29.653334-43.733333-9.6-31.146667-4.48-58.453333 11.52-63.36 4.906667-1.493333 10.24-0.853333 15.36 1.92 11.946667 6.4 23.466667 23.04 29.653334 43.733333 9.6 31.146667 4.48 58.453333-11.52 63.36-1.706667 0.64-3.413333 0.853333-5.12 0.853333z m-23.253334-99.84c-0.64 0-1.28 0-1.92 0.213334-8.533333 2.56-12.16 24.533333-4.48 49.706666 5.333333 17.706667 14.933333 32.426667 24.32 37.333334 2.773333 1.493333 5.12 1.92 7.04 1.28 8.533333-2.56 12.16-24.533333 4.48-49.706667-5.333333-17.706667-14.933333-32.426667-24.32-37.333333a13.568 13.568 0 0 0-5.12-1.493334z" p-id="1656"></path><path d="M751.019834 666.402432a24.32 51.626667 13.038 1 0 23.293666-100.59153 24.32 51.626667 13.038 1 0-23.293666 100.59153Z" fill="#CFA187" p-id="1657"></path><path d="M753.706667 672.213333c-1.28 0-2.56-0.213333-3.84-0.426666-16.426667-3.84-23.253333-30.72-16-62.506667 4.906667-21.12 15.146667-38.613333 26.666666-45.866667 5.12-3.2 10.453333-4.266667 15.146667-2.986666 16.426667 3.84 23.253333 30.72 16 62.506666-4.906667 21.12-15.146667 38.613333-26.666667 45.866667-3.84 2.133333-7.68 3.413333-11.306666 3.413333z m17.92-101.333333a10.24 10.24 0 0 0-5.546667 1.92c-8.96 5.546667-17.493333 20.906667-21.76 39.04-5.973333 25.813333-0.853333 47.36 7.893333 49.28 2.133333 0.426667 4.48 0 7.04-1.706667 8.96-5.546667 17.493333-20.906667 21.76-39.04 5.973333-25.813333 0.853333-47.36-7.893333-49.28-0.426667-0.213333-0.853333-0.213333-1.493333-0.213333z" p-id="1658"></path><path d="M289.706667 564.053333a235.52 233.813333 90 1 0 467.626666 0 235.52 233.813333 90 1 0-467.626666 0Z" fill="#EEC09E" p-id="1659"></path><path d="M523.52 805.12c-131.84 0-239.36-108.16-239.36-241.066667s107.306667-241.066667 239.36-241.066666c131.84 0 239.36 108.16 239.36 241.066666s-107.306667 241.066667-239.36 241.066667z m0-471.253333c-125.866667 0-228.266667 103.253333-228.266667 230.186666 0 126.933333 102.4 230.186667 228.266667 230.186667 125.866667 0 228.266667-103.253333 228.266667-230.186667 0.213333-126.933333-102.4-230.186667-228.266667-230.186666z" p-id="1660"></path><path d="M289.706667 395.306667v157.653333s322.773333-55.466667 475.52-3.626667l-6.4-174.293333s-263.253333-165.76-469.12 20.266667z" fill="#2D2C18" p-id="1661"></path><path d="M392.533333 415.36v123.306667s183.253333-48.853333 270.08-8.32l-3.626666-130.773334c-0.213333 0-149.546667-129.493333-266.453334 15.786667z" fill="#5B533C" p-id="1662"></path><path d="M644.906667 494.293333H420.48v-74.453333s93.013333-6.826667 110.08-6.826667 114.346667 6.826667 114.346667 6.826667v74.453333z" fill="#C0C1BC" p-id="1663"></path><path d="M650.24 499.84H414.933333v-84.906667l5.12-0.426666c3.84-0.213333 93.44-6.826667 110.506667-6.826667s110.72 6.4 114.773333 6.826667l5.12 0.426666v84.906667z m-224.426667-10.88h213.546667v-63.786667c-20.266667-1.28-94.293333-6.4-109.013333-6.4-14.506667 0-85.12 4.906667-104.746667 6.4v63.786667z" p-id="1664"></path><path d="M566.613333 426.453333l-11.093333 11.093334s-16.213333-13.653333-31.573333-5.546667-20.693333 18.773333-13.653334 34.773333c4.053333 8.96 15.146667 15.573333 26.666667 13.653334 11.52-1.706667 24.106667-16.426667 14.933333-26.666667-9.386667-10.026667-17.066667-15.786667-23.253333-9.386667-5.973333 6.4-7.253333 8.746667-4.906667 16.426667 2.986667 9.173333 9.386667 7.68 13.226667 2.773333" fill="#C0C1BC" p-id="1665"></path><path d="M533.333333 484.053333c-10.88 0-21.546667-6.4-25.813333-16-7.466667-16.853333-2.56-29.653333 15.146667-39.04 13.653333-7.253333 27.306667 0.426667 32.64 4.053334l8.96-9.173334c1.28-1.28 3.413333-1.28 4.693333 0s1.28 3.413333 0 4.693334l-11.093333 11.093333c-1.28 1.28-3.2 1.28-4.48 0.213333-0.213333-0.213333-14.72-12.16-27.946667-5.12-14.506667 7.68-18.133333 16.853333-12.16 30.506667 3.2 7.04 12.8 13.44 23.253333 11.733333 6.186667-0.853333 12.586667-6.4 14.72-11.946666 1.28-3.413333 0.64-6.613333-1.706666-9.173334-2.56-2.773333-10.24-11.093333-14.933334-11.093333-0.853333 0-1.92 0.213333-3.413333 1.706667-5.76 5.973333-5.973333 7.253333-4.053333 13.013333 0.853333 2.56 2.133333 4.266667 3.2 4.48 1.28 0.213333 2.773333-0.853333 4.266666-2.56 1.066667-1.493333 3.2-1.706667 4.48-0.64 1.493333 1.066667 1.706667 3.2 0.64 4.48-2.773333 3.84-6.826667 5.76-10.453333 5.12-2.773333-0.426667-6.4-2.346667-8.533333-8.746667-2.986667-9.386667-0.853333-12.8 5.546666-19.626666 2.346667-2.56 5.12-3.84 8.106667-3.84 6.826667 0 13.866667 6.613333 19.84 13.226666 4.053333 4.48 5.12 10.026667 3.2 15.786667-2.773333 8.106667-11.306667 14.933333-19.84 16.426667-1.493333 0.213333-2.773333 0.426667-4.266667 0.426666z" p-id="1666"></path><path d="M498.346667 484.053333c-4.053333 0-7.893333-0.426667-10.666667-1.92a6.058667 6.058667 0 0 1-3.2-4.906666c-0.426667-7.04 13.44-17.493333 19.413333-21.76 1.493333-1.066667 3.626667-0.64 4.48 0.853333 1.066667 1.493333 0.64 3.626667-0.853333 4.48-8.533333 5.973333-16.64 13.653333-16.64 16 4.48 1.92 17.92 0 25.386667-1.92 1.706667-0.426667 3.626667 0.64 4.053333 2.346667a3.413333 3.413333 0 0 1-2.346667 4.053333c-1.28 0.426667-11.093333 2.773333-19.626666 2.773333z" p-id="1667"></path><path d="M289.706667 564.053333c-2.56 0-5.12-0.853333-7.04-2.56a10.624 10.624 0 0 1-3.84-8.32v-157.653333c0-3.2 1.28-6.186667 3.626666-8.106667 209.493333-189.226667 479.36-23.04 481.92-21.333333 2.986667 1.92 4.906667 5.333333 5.12 8.96l6.4 174.293333c0.213333 3.626667-1.493333 7.04-4.48 9.173334s-6.613333 2.773333-10.026666 1.706666c-148.266667-50.346667-466.986667 3.413333-470.186667 4.053334-0.213333-0.426667-0.853333-0.213333-1.493333-0.213334z m10.88-163.84v139.946667c60.16-9.386667 311.68-45.44 453.12-5.76l-5.76-152.96c-36.053333-20.693333-265.6-140.8-447.36 18.773333z" p-id="1668"></path><path d="M426.24 396.586667l-69.333333 110.933333s1.493333-81.493333-17.066667-102.186667l-78.72 102.186667 24.96-68.48-95.786667-26.026667s34.986667-80.213333 71.466667-85.12l-57.173333-53.12s47.786667-31.36 122.24-12.16c0 0-18.56-59.093333 2.773333-99.413333 0 0 85.12 53.973333 91.52 71.253333 0 0 1.066667-83.2 88.533333-141.44 0 0 53.76 80.853333 53.76 94.506667 0 0 24.32-33.066667 67.2-53.333333l-11.093333 93.44s65.493333-50.986667 119.893333-50.986667c0 0 22.186667 66.346667-14.933333 95.146667 0 0 80.853333 12.16 103.68-7.253334l-40.96 87.893334s17.28 47.573333 58.026667 57.6l-53.546667 15.786666 8.533333 72.106667-54.4-59.093333 4.906667 42.453333-36.48-38.826667 1.493333 45.44-69.333333-100.053333-220.16 8.746667z" fill="#E6E43A" p-id="1669"></path><path d="M535.893333 749.44c-29.44 0-54.186667-7.68-55.893333-8.32a5.632 5.632 0 0 1-3.626667-6.826667c0.853333-2.773333 4.053333-4.48 6.826667-3.626666 0.64 0.213333 56.32 17.493333 96.64-0.426667 2.773333-1.28 5.973333 0 7.253333 2.773333s0 5.973333-2.773333 7.253334c-15.36 6.826667-32.426667 9.173333-48.426667 9.173333z" p-id="1670"></path><path d="M418.773333 704.213333s-24.746667-2.986667-43.306666 7.466667" fill="#EEC09E" p-id="1671"></path><path d="M375.466667 717.226667c-1.92 0-3.84-1.066667-4.693334-2.773334a5.397333 5.397333 0 0 1 2.133334-7.466666c19.84-11.093333 45.44-8.32 46.506666-8.106667 2.986667 0.426667 5.12 2.986667 4.693334 5.973333-0.426667 2.986667-2.986667 5.333333-5.973334 4.693334-0.213333 0-23.253333-2.56-39.893333 6.826666-0.853333 0.64-1.706667 0.853333-2.773333 0.853334z" p-id="1672"></path><path d="M430.933333 724.266667s-9.386667 0.213333-27.946666 10.666666" fill="#EEC09E" p-id="1673"></path><path d="M402.986667 740.48c-1.92 0-3.84-1.066667-4.693334-2.773333a5.397333 5.397333 0 0 1 2.133334-7.466667c20.053333-11.306667 29.44-11.306667 30.506666-11.306667 2.986667 0 5.333333 2.346667 5.546667 5.333334s-2.346667 5.546667-5.333333 5.546666c-0.213333 0-8.746667 0.64-25.386667 10.026667-0.853333 0.426667-1.706667 0.64-2.773333 0.64z" p-id="1674"></path><path d="M443.306667 739.626667s-5.76 2.986667-14.506667 14.72" fill="#EEC09E" p-id="1675"></path><path d="M428.8 757.973333c-0.853333 0-1.493333-0.213333-2.133333-0.853333a3.754667 3.754667 0 0 1-0.853334-5.12c8.96-12.16 15.146667-15.36 15.786667-15.786667a3.626667 3.626667 0 0 1 4.906667 1.706667c0.853333 1.706667 0.213333 4.053333-1.706667 4.906667-0.213333 0-5.333333 2.986667-13.226667 13.653333-0.64 1.066667-1.706667 1.493333-2.773333 1.493333z" p-id="1676"></path><path d="M644.693333 686.293333s21.973333 11.733333 31.36 30.933334" fill="#EEC09E" p-id="1677"></path><path d="M675.84 722.773333c-1.92 0-4.053333-1.066667-4.906667-2.986666-8.533333-17.28-28.8-28.373333-29.013333-28.586667a5.333333 5.333333 0 0 1-2.133333-7.466667 5.333333 5.333333 0 0 1 7.466666-2.133333c0.853333 0.426667 23.466667 12.8 33.706667 33.493333 1.28 2.773333 0.213333 5.973333-2.56 7.253334-0.853333 0.213333-1.706667 0.426667-2.56 0.426666z" p-id="1678"></path><path d="M632.32 717.866667s9.386667 0.213333 27.946667 10.666666" fill="#EEC09E" p-id="1679"></path><path d="M660.266667 734.08c-0.853333 0-1.92-0.213333-2.773334-0.64-16.853333-9.386667-25.386667-10.026667-25.386666-10.026667a5.461333 5.461333 0 0 1-5.12-5.76c0-2.986667 2.773333-5.12 5.546666-5.333333 1.066667 0 11.306667 0.64 30.506667 11.306667 2.56 1.493333 3.626667 4.693333 2.133333 7.466666-1.066667 2.133333-2.986667 2.986667-4.906666 2.986667z" p-id="1680"></path><path d="M619.946667 733.226667s5.76 2.986667 14.506666 14.72" fill="#EEC09E" p-id="1681"></path><path d="M634.666667 751.786667c-1.066667 0-2.346667-0.426667-2.986667-1.493334-8.106667-10.666667-13.226667-13.653333-13.44-13.653333-1.706667-0.853333-2.56-3.2-1.493333-4.906667 0.853333-1.706667 2.986667-2.56 4.906666-1.706666 0.64 0.426667 6.826667 3.626667 15.786667 15.786666 1.28 1.706667 0.853333 4.053333-0.853333 5.12-0.426667 0.426667-1.28 0.853333-1.92 0.853334z" p-id="1682"></path><path d="M522.24 672.213333l-3.84 8.106667c-1.28 2.773333 0.64 5.973333 3.84 5.973333h7.466667a4.266667 4.266667 0 0 0 3.84-5.973333l-3.84-8.106667a4.096 4.096 0 0 0-7.466667 0z" p-id="1683"></path><path d="M421.76 619.306667m-4.693333 0a4.693333 4.693333 0 1 0 9.386666 0 4.693333 4.693333 0 1 0-9.386666 0Z" fill="#779FB9" p-id="1684"></path><path d="M681.173333 624s-81.706667-52.053333-97.28-9.386667" fill="#EEC09E" p-id="1685"></path><path d="M680.96 634.88a11.306667 11.306667 0 0 1-5.76-1.706667c-18.986667-12.16-55.68-29.226667-72.96-23.253333-4.053333 1.28-6.613333 4.053333-8.32 8.32-2.133333 5.76-8.533333 8.533333-14.08 6.4-5.76-2.133333-8.533333-8.32-6.4-14.08 3.84-10.666667 11.52-18.133333 21.76-21.546667 32.64-11.093333 85.76 21.76 91.733333 25.6a11.008 11.008 0 0 1-5.973333 20.266667z" p-id="1686"></path><path d="M362.666667 623.573333s83.626667-38.826667 99.413333 3.626667" fill="#EEC09E" p-id="1687"></path><path d="M462.08 638.293333c-4.48 0-8.533333-2.773333-10.24-7.04a16.469333 16.469333 0 0 0-10.026667-10.24c-20.48-8.533333-60.8 6.4-74.453333 12.8-5.546667 2.56-11.946667 0.213333-14.506667-5.333333a10.837333 10.837333 0 0 1 5.333334-14.506667c5.973333-2.773333 59.093333-26.666667 91.946666-13.226666 10.666667 4.266667 18.133333 12.373333 22.186667 22.826666 2.133333 5.76-0.853333 11.946667-6.4 14.08-1.28 0.426667-2.56 0.64-3.84 0.64z" p-id="1688"></path><path d="M632.32 799.146667c0 8.32-5.76 14.933333-12.8 14.933333H437.973333c-8.533333 0-15.573333-8.106667-15.573333-18.133333v-7.253334c0-11.52 8.533333-20.48 18.133333-18.986666 23.04 3.413333 62.506667 8.533333 86.826667 8.533333 24.96 0 66.133333-5.546667 88.746667-8.96 8.746667-1.28 16.213333 6.613333 16.213333 16.853333v13.013334z" fill="#554D40" p-id="1689"></path><path d="M619.733333 820.053333h-181.76c-11.733333 0-21.333333-10.88-21.333333-24.106666v-7.253334c0-7.893333 3.2-15.146667 8.746667-19.84a20.053333 20.053333 0 0 1 16.213333-4.906666c21.76 3.2 61.653333 8.533333 85.973333 8.533333 24.533333 0 65.493333-5.546667 87.893334-8.746667 5.333333-0.853333 10.666667 0.853333 15.146666 4.48 5.12 4.266667 7.893333 11.093333 7.893334 18.133334v12.8c-0.213333 11.52-8.533333 20.906667-18.773334 20.906666z m-181.12-44.586666c-2.56 0-4.48 1.28-5.546666 2.346666-2.773333 2.56-4.693333 6.613333-4.693334 10.88v7.253334c0 6.826667 4.266667 12.373333 9.6 12.373333h181.76c3.626667 0 6.826667-4.266667 6.826667-9.173333v-12.8a13.013333 13.013333 0 0 0-3.84-9.386667 6.506667 6.506667 0 0 0-5.546667-1.706667c-22.613333 3.413333-64.426667 8.96-89.6 8.96-24.96 0-65.706667-5.333333-87.68-8.746666h-1.28z" p-id="1690"></path><path d="M440.533333 856.533333s-24.746667 68.053333-26.453333 81.493334l14.506667-0.213334 11.946666-81.28z" fill="#2D2C18" p-id="1691"></path><path d="M619.093333 856.533333s24.746667 68.053333 26.453334 81.493334l-14.506667-0.213334-11.946667-81.28z" fill="#2D2C18" p-id="1692"></path><path d="M503.253333 937.173333l-74.453333 0.853334 8.533333-58.666667h42.026667c11.093333 0 20.48 8.746667 21.333333 19.84l2.56 37.973333z" fill="#EC8E48" p-id="1693"></path><path d="M428.8 943.36c-1.493333 0-2.986667-0.64-4.053333-1.92a5.610667 5.610667 0 0 1-1.28-4.48l8.533333-58.666667c0.426667-2.773333 2.773333-4.693333 5.333333-4.693333h41.813334c13.866667 0 25.6 10.88 26.666666 24.96l2.773334 37.973333c0.213333 1.493333-0.426667 2.986667-1.493334 4.053334-1.066667 1.066667-2.56 1.706667-4.053333 1.706666l-74.24 1.066667z m13.226667-58.666667l-7.04 47.786667 62.293333-0.64-2.346667-32.213333a15.829333 15.829333 0 0 0-15.786666-14.72h-37.12z" p-id="1694"></path><path d="M555.946667 937.173333l74.453333 0.853334-8.533333-58.666667h-46.293334c-8.746667 0-16 6.826667-16.64 15.573333l-2.986666 42.24z" fill="#EC8E48" p-id="1695"></path><path d="M630.4 943.36l-74.666667-0.853333c-1.493333 0-2.986667-0.64-4.053333-1.706667a5.632 5.632 0 0 1-1.493333-4.053333l3.2-42.453334c0.853333-11.52 10.453333-20.48 21.973333-20.48h46.293333c2.773333 0 5.12 1.92 5.333334 4.693334l8.533333 58.666666c0.213333 1.493333-0.213333 3.2-1.28 4.48-0.64 1.066667-2.133333 1.706667-3.84 1.706667z m-68.48-11.52l62.293333 0.64-7.04-47.786667h-41.6c-5.76 0-10.666667 4.693333-11.093333 10.453334l-2.56 36.693333z" p-id="1696"></path><path d="M523.733333 789.546667s-8.106667 14.72-3.413333 42.453333 13.013333 34.56 5.546667 53.12-2.133333 51.413333-2.133334 51.413333h7.68s-9.6-7.04-4.053333-32.426666c5.333333-25.386667 8.106667-30.933333 2.986667-45.013334-4.906667-14.08-10.666667-24.32-8.106667-41.386666 2.56-16.853333 5.546667-28.16 5.546667-28.16h-4.053334z" fill="#FFFFFF" p-id="1697"></path><path d="M522.88 937.6l-0.213333-0.853333c-0.213333-1.28-5.333333-33.28 2.133333-51.84 4.906667-11.946667 2.773333-18.986667-0.426667-30.506667-1.706667-5.76-3.626667-12.8-5.12-21.973333-4.693333-27.733333 3.2-42.666667 3.626667-43.306667l0.213333-0.64h6.4l-0.426666 1.28c0 0.213333-2.986667 11.306667-5.546667 27.946667-2.133333 13.866667 1.28 23.04 5.546667 33.92 0.853333 2.346667 1.706667 4.48 2.56 7.04 4.48 12.373333 2.986667 18.346667-0.853334 35.84-0.64 2.986667-1.28 6.186667-2.133333 9.813333-5.12 24.106667 3.626667 31.146667 3.626667 31.36l2.56 1.92h-11.946667z m1.066667-93.44c0.853333 3.626667 1.706667 6.826667 2.56 9.6 3.2 11.52 5.546667 19.2 0.426666 31.786667-6.613333 16.213333-2.986667 44.373333-2.133333 49.706666h4.266667c-2.56-3.626667-6.826667-12.586667-2.773334-31.573333 0.853333-3.626667 1.493333-6.826667 2.133334-9.813333 3.84-17.066667 5.12-22.826667 0.853333-34.56-0.853333-2.346667-1.706667-4.693333-2.56-6.826667-0.853333-2.773333-1.92-5.546667-2.773333-8.32z m0.426666-53.546667c-1.28 2.773333-6.4 15.573333-3.626666 36.906667 0-3.2 0-6.4 0.64-10.026667 2.133333-13.44 4.266667-23.253333 5.12-26.88h-2.133334z" p-id="1698"></path><path d="M444.586667 813.013333c-2.346667-1.066667-3.413333-3.84-2.346667-5.973333l6.826667-14.293333c1.066667-2.133333 3.626667-3.2 5.973333-2.133334h0.213333c2.133333 1.066667 3.2 3.626667 2.133334 5.973334l-6.826667 14.293333c-1.066667 2.133333-3.626667 3.2-5.973333 2.133333zM483.2 790.826667c2.346667 1.28 2.986667 4.053333 1.706667 6.186666l-7.893334 13.866667c-1.28 2.133333-3.84 2.773333-5.973333 1.706667h-0.213333a4.757333 4.757333 0 0 1-1.706667-6.186667l7.893333-13.866667c1.493333-2.133333 4.053333-2.773333 6.186667-1.706666zM599.68 815.573333a4.629333 4.629333 0 0 1-5.333333-3.626666l-2.346667-15.786667c-0.426667-2.346667 1.28-4.693333 3.626667-5.12h0.213333c2.346667-0.426667 4.693333 1.28 5.12 3.84l2.346667 15.786667c0.426667 2.346667-1.28 4.48-3.626667 4.906666zM568.533333 815.573333a4.629333 4.629333 0 0 1-5.333333-3.626666l-2.346667-15.786667c-0.426667-2.346667 1.28-4.693333 3.626667-5.12h0.213333c2.346667-0.426667 4.693333 1.28 5.12 3.84l2.346667 15.786667c0.426667 2.346667-1.28 4.48-3.626667 4.906666zM606.293333 788.48c2.56-0.426667 4.906667 1.28 5.333334 3.626667l2.346666 15.786666c0.426667 2.346667-1.28 4.693333-3.626666 5.12h-0.213334c-2.346667 0.426667-4.693333-1.28-5.12-3.84l-2.346666-15.786666a4.266667 4.266667 0 0 1 3.626666-4.906667zM515.2 789.333333c2.56 0 4.693333 1.92 4.693333 4.48v16c0 2.346667-1.92 4.48-4.48 4.48h-0.213333c-2.346667 0-4.48-1.92-4.48-4.48v-16c0-2.56 1.92-4.48 4.48-4.48zM525.866667 789.333333c2.56 0 4.693333 1.92 4.693333 4.48v16c0 2.346667-1.92 4.48-4.48 4.48h-0.213333c-2.346667 0-4.48-1.92-4.48-4.48v-16c0-2.56 2.133333-4.48 4.48-4.48z" p-id="1699"></path><path d="M197.546667 409.6s64.426667 8.106667 97.706666-6.186667l3.84 32.64 40.96-65.28s35.84 56.746667 30.506667 81.92l58.24-81.92-2.346667 26.026667-69.333333 110.933333s-0.64-89.813333-17.066667-106.88l-77.44 105.173334 21.76-66.773334-86.826666-29.653333z" fill="#CEA243" p-id="1700"></path><path d="M823.04 402.773333s-33.493333 13.653333-46.933333 5.12l4.48 32-52.48-43.52 5.973333 46.293334-35.84-46.293334 5.333333 49.706667-54.4-63.36 66.56 105.6-3.626666-47.36 38.613333 40.746667-4.906667-42.453334 54.4 59.093334-8.533333-72.106667 52.053333-15.36-20.693333-8.106667z" fill="#CEA243" p-id="1701"></path><path d="M243.84 539.093333l35.2-96.213333-96.213333-26.026667 2.56-5.76c1.28-3.2 30.933333-69.76 65.706666-85.333333l-55.253333-51.413333 5.76-3.84c1.92-1.28 46.72-29.866667 117.546667-15.146667-4.48-18.56-11.733333-61.866667 5.76-94.506667l2.773333-5.12 4.906667 3.2c11.946667 7.466667 62.933333 40.533333 84.48 62.08 4.266667-26.666667 21.12-86.613333 89.6-132.053333l4.48-2.986667 2.986666 4.48c10.666667 16 41.173333 62.933333 51.413334 86.4 10.026667-11.306667 31.573333-32.426667 62.72-47.146666l8.96-4.266667-10.88 90.88c20.906667-14.506667 69.76-44.586667 113.066666-44.586667h3.84l1.28 3.626667c0.853333 2.56 19.413333 59.733333-8.32 92.8 26.666667 2.986667 73.386667 5.12 88.106667-7.466667l18.986667-16.213333-50.56 108.373333c3.84 8.96 20.693333 44.16 53.333333 52.053334l19.626667 4.906666-68.693334 20.266667 10.026667 84.266667-54.4-59.093334 4.906667 42.24-37.973334-40.533333 1.493334 49.28-78.08-112.853333-214.4 8.533333-78.293334 125.013333 0.426667-19.626666c0.426667-19.84-1.28-71.466667-11.946667-92.8l-94.933333 124.586666z m95.573333-142.293333l4.266667 4.906667c14.293333 16 17.706667 61.013333 18.346667 87.253333l61.013333-97.493333 226.133333-8.96 60.586667 87.466666-1.28-41.386666 34.986667 37.333333-5.12-42.666667 54.4 59.093334-7.04-59.946667 42.453333-12.586667c-31.786667-16.64-45.44-53.333333-46.08-55.04l-0.853333-2.133333 35.2-75.946667c-31.36 9.813333-85.76 1.92-93.013334 0.853334l-12.586666-1.92 10.24-7.893334c28.8-22.4 18.133333-71.04 14.293333-85.12-50.986667 2.346667-111.786667 49.066667-112.426667 49.706667l-10.24 7.893333 11.52-96.213333c-35.626667 19.413333-55.893333 46.72-56.106666 47.146667l-9.813334 13.226666V187.733333c0-7.466667-24.96-49.066667-49.92-87.04C429.013333 156.373333 426.666667 233.813333 426.666667 234.666667l-0.426667 29.013333-10.026667-27.093333c-3.84-10.24-49.92-43.093333-84.053333-65.28-16 37.546667 0 89.173333 0 89.813333l2.986667 9.386667-9.386667-2.346667c-55.893333-14.293333-96.64 0.853333-111.573333 8.106667l60.16 55.893333-11.52 1.493333c-25.173333 3.413333-52.906667 51.626667-64.64 75.946667l95.36 25.813333-14.933334 40.746667 60.8-79.36z" p-id="1702"></path></svg>