<?xml version="1.0" standalone="no"?><!DOCTYPE svg PUBLIC "-//W3C//DTD SVG 1.1//EN" "http://www.w3.org/Graphics/SVG/1.1/DTD/svg11.dtd"><svg t="1712499360399" class="icon" viewBox="0 0 1039 1024" version="1.1" xmlns="http://www.w3.org/2000/svg" p-id="1852" xmlns:xlink="http://www.w3.org/1999/xlink" width="202.9296875" height="200"><path d="M46.446358 855.547496c-9.648422-2.501443-14.933584-11.597326-13.272962-22.840305 1.690651-11.471202 11.732457-30.275566 101.421044-189.968517 3.447367-6.137994 10.996739-19.771308 16.777384-30.293583 5.777642-10.522276 22.110592-39.221302 36.296446-63.773279 23.056516-39.914979 59.46407-110.54095 59.46407-115.351648 0-4.774663 19.810346-39.969032 33.602815-59.701302 52.686452-75.358592 136.855648-127.903906 223.090863-139.276012 34.19139-4.507402 98.000704-2.252199 132.756645 4.690581 45.308246 9.050839 98.234933 30.671953 142.260926 58.112751 25.975367 16.185806 38.881971 20.891402 46.16108 16.816422 2.726663-1.522487 31.79505-37.945056 64.596082-80.938041 54.121853-70.929267 60.509091-78.166334 69.043425-78.166334 17.96054 0 44.221185 18.371941 44.221185 30.936211 0 2.204152-34.797982 46.72563-77.331519 98.940622-65.941396 80.950053-79.577713 96.045795-92.580411 102.499096-14.792446 7.336164-15.669302 7.405232-28.894217 2.354299-7.504328-2.864798-27.065431-15.275918-43.476457-27.581935-34.686874-26.014405-83.331378-50.863672-119.636833-61.121689-22.546018-6.366217-32.740974-7.207038-87.691637-7.186018-59.226839 0.018018-63.289806 0.420411-85.481478 8.459261-85.307308 30.900176-152.032469 110.447859-171.677654 204.658862-20.990499 100.667308 36.734874 222.099894 126.420458 265.945713 34.605795 16.918522 89.757654 24.209642 128.153149 16.945548 51.320117-9.711484 104.192751-33.761971 121.300458-55.169876 23.473924-29.377689 39.647718-77.556739 35.957114-107.108599-5.056938-40.455507-28.960282-93.391202-55.425126-122.735859-6.705548-7.432258-20.894405-17.293889-33.788997-23.482932-18.383953-8.819613-25.92732-10.663413-43.58156-10.663414-46.455367 0-79.986111 27.867214-87.199155 72.475777-3.062991 18.936493 2.627566 33.182405 19.437982 48.677537 20.519038 18.918475 36.626768 25.37478 63.509021 25.458862 32.446686 0.099097 46.149067 10.243003 46.149067 34.161361 0 17.077677-6.201056 23.804246-28.888211 31.338604-14.642299 4.864751-19.627167 5.110991-37.356481 1.8438-35.605771-6.561408-60.148739-18.468035-83.523566-40.515566-24.506933-23.122581-37.954065-46.956856-40.512563-71.827143-2.351296-22.843308 6.02088-65.71017 17.155754-87.853795 25.795191-51.290088 96.292035-80.388504 162.942123-67.259683 109.111554 21.494991 179.344141 134.705548 158.521806 255.519531-2.978909 17.278874-8.176985 39.443519-11.552281 49.254099-18.864422 54.827543-80.409525 106.438944-149.540036 125.402464l-27.104469 7.438263-260.681572 1.657619c-143.372012 0.912891-264.891683 0.564551-270.041712-0.771753z m192.469959-53.431179c52.476246-1.741701 96.099848-3.855765 96.940668-4.693584 0.840821-0.840821-4.840727-8.363167-12.624328-16.723331-39.317396-42.215226-75.145384-106.222733-88.826745-158.686968-2.285232-8.768563-5.183062-17.113713-6.44129-18.540106-1.258229-1.426393-26.194581 40.569619-55.419121 93.322135-44.866815 80.9981-52.605372 96.90163-49.74658 102.243848 2.111062 3.945853 6.64549 6.312164 12.041759 6.285138 4.762651-0.018018 51.596387-1.462428 104.075637-3.207132z" p-id="1853"></path></svg>