<?xml version="1.0" standalone="no"?><!DOCTYPE svg PUBLIC "-//W3C//DTD SVG 1.1//EN" "http://www.w3.org/Graphics/SVG/1.1/DTD/svg11.dtd"><svg t="1712499378059" class="icon" viewBox="0 0 1024 1024" version="1.1" xmlns="http://www.w3.org/2000/svg" p-id="2688" xmlns:xlink="http://www.w3.org/1999/xlink" width="200" height="200"><path d="M975.585312 186.208836c-7.772446-8.284404-99.30425-79.570613-145.83033-53.197043-7.338058 15.126018-4.77827 68.617825 0 79.787808 4.793784 11.154469 89.003043 83.898982 132.58149 252.658804 43.578447 168.744309 37.636636 265.349146-13.264355 372.317245-50.900991 106.983613-132.565976 186.166379-132.565976 186.16638s100.126484-218.823065 39.762036-212.757144c-60.364449 6.081435-146.171636 71.999847-185.60788 93.083189-39.420731 21.098856-145.22529 66.492425-278.396307 66.492425S135.881858 951.228544 7.799389 797.889503c0 0 61.962377 39.668953 132.565976 53.197043 84.007579 13.52809 68.88156-24.573962 66.290745-39.90166-2.590815-15.327699-47.906815-83.728329-106.068295-159.560101-47.953357-75.847286-62.986292-187.283378-66.275231-265.954187-3.304453-78.670809 4.188744-157.636382 39.762036-226.06804C109.663426 91.170899 157.756408 19.093483 206.65611 0.042457c0 0-68.67988 108.069583-66.290745 159.560101 2.389135 51.490518 82.409651 22.929492 145.287345-13.295383C323.10318 123.067406 456.987835 13.337839 617.633906 13.337839s297.974804 63.203486 397.728956 159.560101c6.670962 10.704567-32.005103 21.579786-39.77755 13.310896zM511.379445 186.208836c-178.50253 0-317.98769 142.41728-317.987689 312.480268 0 172.591748 139.48516 312.495782 317.987689 312.495782 165.641536 0 305.126696-139.904034 305.126696-312.495782C816.506141 328.626116 677.020981 186.208836 511.379445 186.208836z m0 505.302095c-112.599632 0-198.670555-77.119423-198.670554-192.821827 0-106.487169 86.070923-192.806314 198.670554-192.806314 99.738638 0 185.809561 86.319145 185.809561 192.806314 0 115.702405-86.070923 192.821827-185.809561 192.821827z" p-id="2689"></path></svg>